<svg xmlns="http://www.w3.org/2000/svg" fill="none" viewBox="0 0 20 20" id="Button-Play--Streamline-Core" height="20" width="20">
  <desc>
    Button Play Streamline Icon: https://streamlinehq.com
  </desc>
  <g id="button-play--button-television-buttons-movies-play-tv-video-controls">
    <path id="Union" fill="#fefcff" fill-rule="evenodd" d="M3.822757142857143 0.027378571428571433c-0.42251428571428573 0 -0.837957142857143 0.10769642857142857 -1.2071285714285716 0.31278285714285714 -0.3759142857142857 0.19162714285714288 -0.6932142857142858 0.48128 -0.9182428571428571 0.8384714285714285 -0.22827142857142857 0.3623242857142857 -0.35286285714285714 0.7802957142857143 -0.36024142857142855 1.208467142857143l-0.00010714285714285714 0V17.628H1.3369314285714287l0.00021285714285714283 0.012285714285714285c0.007378571428571429 0.42814285714285716 0.13197 0.8461428571428572 0.36024142857142855 1.2084285714285714 0.2250285714285714 0.35728571428571426 0.5423285714285715 0.6468571428571428 0.9182428571428571 0.8385714285714285 0.36917142857142854 0.205 0.7846142857142857 0.3127142857142857 1.2071285714285716 0.3127142857142857 0.4285 0 0.8497285714285714 -0.11071428571428571 1.2228 -0.32157142857142856 0.008214285714285714 -0.004571428571428572 0.01632857142857143 -0.009428571428571429 0.024342857142857142 -0.014428571428571428l12.328242857142858 -7.624928571428571c0.37385714285714283 -0.18841428571428573 0.6894285714285714 -0.47545714285714286 0.9125714285714286 -0.8304285714285715 0.23014285714285715 -0.36655714285714286 0.3524285714285714 -0.7906428571428572 0.3524285714285714 -1.2235285714285713 0 -0.4328714285714286 -0.12228571428571428 -0.8569714285714285 -0.3524285714285714 -1.2235142857142858 -0.22328571428571428 -0.3553428571428571 -0.5394285714285715 -0.6426285714285714 -0.9137142857142857 -0.8310285714285714L5.067871428571428 0.36209285714285716c-0.007357142857142857 -0.004514285714285715 -0.014799999999999999 -0.008895714285714286 -0.022314285714285714 -0.013141428571428573 -0.37307142857142855 -0.21079828571428572 -0.7943 -0.32157285714285716 -1.2228 -0.32157285714285716Z" clip-rule="evenodd" stroke-width="1.4286"></path>
  </g>
</svg>